<svg id="Capa_1" data-name="Capa 1" xmlns="http://www.w3.org/2000/svg" viewBox="0 0 1024 1024"><defs><style>.cls-1{fill:#fff;}</style></defs><path class="cls-1" d="M763.75154,831.47538q-27.66723-20.06-55.33284-40.12234Q614.144,722.87891,519.83885,654.44676c-10.84423-7.84689-6.94756-7.80246-17.51744-.14018Q383.7064,740.2929,265.25133,826.49987c-2.24826,1.63347-4.57374,3.16059-6.96152,4.80505-1.32754-2.3308.14994-4.00561.68156-5.64686q46.41522-143.29215,93.068-286.50708c1.35644-4.1582.76833-6.24247-2.82823-8.84938Q226.54353,441.39012,104.07033,352.21029c-.95016-.69083-1.8843-1.4036-3.07033-2.28846,1.68754-1.11962,3.273-.67238,4.72937-.675q116.14074-.20481,232.28161-.35622c23.52612-.03492,47.05372-.23537,70.57711-.00393,4.403.04331,5.91966-1.468,7.18888-5.3952q46.56129-144.07116,93.38444-288.05762c.46989-1.44726.3973-3.21015,2.21977-4.1997q19.09526,58.69639,38.16074,117.31415,28.53,87.85026,56.9169,175.74679c1.2362,3.843,3.13789,4.527,6.72516,4.5295q150.90467.106,301.80922.39889c1.86028.00286,3.7205.00038,7.08439.00038-11.747,8.55033-22.28574,16.23264-32.83632,23.89862Q783.06451,450.27,676.88434,527.41268c-8.6316,6.27154-8.62639,6.27732-5.38157,16.279q45.589,140.52453,91.17357,281.05053c.63932,1.97086,1.221,3.96029,1.82955,5.941Q764.12867,831.0793,763.75154,831.47538Z"/><path class="cls-1" d="M311.68644,930.91737q6.232,19.20976,12.46347,38.41974c.08739.26942.16691.54137.2501.81214l-.10312.10829q-3.78213-2.74221-7.564-5.48475-12.88738-9.36045-25.779-18.71515c-1.48241-1.07267-.94973-1.0666-2.39464-.01916q-16.21473,11.75436-32.40759,23.5389c-.30734.2233-.62523.43205-.95165.65685-.18147-.31862.0205-.54757.09317-.77193q6.345-19.5881,12.72245-39.16565l8.71295-26.74673q6.365-19.6946,12.7657-39.37761c.06423-.19785.05431-.43883.30344-.57411q2.61033,8.02383,5.21659,16.0369,3.90008,12.00918,7.78057,24.02467Z"/><path class="cls-1" d="M504.18535,948.51809q12.90411,9.33737,25.77895,18.71516,3.77984,2.74536,7.564,5.48474l.10312-.10828c-.08319-.27077-.16271-.54273-.2501-.81215q-6.23108-19.21008-12.46347-38.41973l-8.89154-27.2576q-3.86661-12.01995-7.78056-24.02467-2.60358-8.017-5.2166-16.0369c-.24913.13527-.23921.37626-.30344.5741q-6.39136,19.686-12.7657,39.37761l-8.71295,26.74674Z"/><path class="cls-1" d="M390.84956,946.05013Q374.63483,957.80449,358.442,969.589c-.30734.2233-.62523.43205-.95164.65685-.18148-.31862.0205-.54757.09317-.77193q6.345-19.58809,12.72244-39.16564l8.713-26.74674q6.365-19.6946,12.76569-39.37761c.06424-.19784.05431-.43883.30345-.5741q2.61033,8.02382,5.21659,16.03689,3.90008,12.00918,7.78056,24.02467c.169.52534.42895.61884.91934.61919q20.62874.01449,41.25746.05453c.2543.00039.50859,0,.96844,0-1.60583,1.16883-3.04647,2.219-4.48874,3.26695q-14.51442,10.5461-29.02929,21.09153Z"/><path class="cls-1" d="M598.11711,945.12241q12.90411,9.33735,25.779,18.71515,3.77983,2.74537,7.564,5.48474l.10312-.10828c-.08319-.27077-.16271-.54273-.2501-.81214q-6.23108-19.2101-12.46347-38.41974c-.44357-1.36724-.44428-1.368.73566-2.22535q14.51451-10.546,29.02929-21.09154c1.44227-1.04794,2.88292-2.09811,4.48874-3.267-.45984,0-.71413.00034-.96844,0q-20.62872-.03189-41.25746-.05453c-.49038-.00034-.75034-.09385-.91933-.61918q-3.86661-12.02-7.78056-24.02467-2.60358-8.017-5.2166-16.0369c-.24913.13527-.23921.37626-.30344.5741q-6.39137,19.68606-12.7657,39.37761l-8.71295,26.74674Z"/><path class="cls-1" d="M690.02673,929.36142q-6.38538,19.57494-12.72244,39.16565c-.07267.22436-.27464.45331-.09317.77193.32641-.2248.64431-.43356.95164-.65685q16.20222-11.77164,32.4076-23.53891c1.4449-1.04743.91223-1.05351,2.39464.01917q12.90411,9.33735,25.779,18.71515,3.77982,2.74537,7.564,5.48474l.10312-.10828c-.08318-.27077-.1627-.54273-.2501-.81214q-6.23108-19.2101-12.46347-38.41974c-.44356-1.36724-.44428-1.368.73567-2.22535q14.51451-10.546,29.02929-21.09154c1.44227-1.04794,2.88291-2.09811,4.48874-3.267-.45985,0-.71414.00034-.96844,0q-20.62872-.03189-41.25746-.05453c-.49038-.00034-.75034-.09385-.91933-.61918q-3.86661-12.02-7.78057-24.02467-2.60357-8.017-5.21659-16.0369c-.24913.13527-.23921.37626-.30344.5741q-6.39137,19.68606-12.7657,39.37761Z"/></svg>